<?xml version="1.0" ?><svg id="TwoTone" viewBox="0 0 64 64" xmlns="http://www.w3.org/2000/svg"><title/><desc/><g data-name="Stroke copy 3" id="Stroke_copy_3"><path d="M11.73,51.08,7,52.34V11.77L3,12.84V58l5.49-1.46a37.07,37.07,0,0,1,23.35,1.4L32,58V52.34l-.14-.05A32,32,0,0,0,11.73,51.08Z" style="fill:#79bd9a"/><path d="M57,11.77V52.34l-4.73-1.26a32,32,0,0,0-20.13,1.21l-.14.05V58l.16-.06a37.07,37.07,0,0,1,23.35-1.4L61,58V12.84Z" style="fill:#79bd9a"/><path d="M21.36,45a10,10,0,0,1-9.63-10v-28L7,8.34v44l4.73-1.26a32,32,0,0,1,20.13,1.21l.14.05v-5l-.14-.05A31.82,31.82,0,0,0,21.36,45Z" style="fill:#cff09e"/><path d="M46.17,45.07A10,10,0,0,1,37,35V6.78a31,31,0,0,0-4.86,1.51L32,8.34v44l.14-.05a32,32,0,0,1,20.13-1.21L57,52.34v-5l-4.73-1.26A32.64,32.64,0,0,0,46.17,45.07Z" style="fill:#cff09e"/><path d="M15,23l-2-5h5l-3-6,8-3L20.88,6a31.93,31.93,0,0,0-9.15,1L7,8.34v21L13,28Z" style="fill:#a8dba8"/><polygon points="27 21 21 21 24 26 23 30 27 34 27 43 32 41.89 32 22.57 28 26 27 21" style="fill:#a8dba8"/><polygon points="36 41 41 41 36 35 38 34 45 34 40 24 35 20 32 22.57 32 41.89 36 41" style="fill:#a8dba8"/><path d="M19,45l2-7-5,2-3-4L7,38.4V52.34l4.73-1.26a33.09,33.09,0,0,1,4.59-.86L13,45Z" style="fill:#a8dba8"/><path d="M42,10l1,8,5,2,3-5,2,1L51,28l6-1.2V8.34L52.27,7.08a32.14,32.14,0,0,0-15.13-.33L36,13Z" style="fill:#a8dba8"/><polygon points="53 41 48 40 48 36 53 37 53 41" style="fill:#a8dba8"/></g><g data-name="Stroke Close copy 3" id="Stroke_Close_copy_3"><path d="M61.26,11.87,58,11V8.34a1,1,0,0,0-.74-1L52.52,6.11A33.24,33.24,0,0,0,37,5.77l-.09,0A33.48,33.48,0,0,0,32,7.28,32.89,32.89,0,0,0,21.05,5.05h0a33.11,33.11,0,0,0-9.56,1.06L6.74,7.38a1,1,0,0,0-.74,1V11l-3.26.86a1,1,0,0,0-.74,1V58a1,1,0,0,0,.39.79,1,1,0,0,0,.87.18L8.75,57.5a36.31,36.31,0,0,1,22.72,1.37l.16.06a1,1,0,0,0,.74,0l.16-.06A36.31,36.31,0,0,1,55.25,57.5L60.74,59A1.15,1.15,0,0,0,61,59a1,1,0,0,0,1-1V12.84A1,1,0,0,0,61.26,11.87ZM27.71,33.29l-3.6-3.6L25,26.24a1,1,0,0,0-.11-.75L22.77,22h3.41L27,26.2a1,1,0,0,0,1.63.56l2.35-2V41.09l-3,.66V34A1,1,0,0,0,27.71,33.29Zm7.52,2.35L38.86,40H36l-.22,0L33,40.64V23l2-1.73,4.18,3.34L43.38,33H38a1,1,0,0,0-.45.11l-2,1a1,1,0,0,0-.53.68A1,1,0,0,0,35.23,35.64Zm-2.23,7L36.11,42H41a1,1,0,0,0,.77-1.64l-4.19-5,.66-.33H45a1,1,0,0,0,.89-1.45l-5-10a.86.86,0,0,0-.27-.33l-5-4a1,1,0,0,0-1.27,0L33,20.4V9a29,29,0,0,1,2.87-.92L35,12.82a1,1,0,0,0,1.43,1.07l4.73-2.36L42,18.12a1,1,0,0,0,.62.81l5,2a1,1,0,0,0,1.23-.42l2.52-4.2.51.25L50,27.84a1,1,0,0,0,.29.88A1,1,0,0,0,51,29l.2,0L56,28V51l-3.48-.93A33.21,33.21,0,0,0,33,50.9ZM52,8.05l4,1.06V26l-3.78.76L54,16.16a1,1,0,0,0-.54-1.05l-2-1a1,1,0,0,0-1.31.38l-2.56,4.26-3.66-1.46L43,9.88a1,1,0,0,0-.52-.76,1,1,0,0,0-.92,0l-4.21,2.1L38,7.61A31.14,31.14,0,0,1,52,8.05ZM31,22.11l-2.35,2L28,20.8a1,1,0,0,0-1-.8H21a1,1,0,0,0-.86,1.51l2.79,4.65-.9,3.6a1,1,0,0,0,.26.95L26,34.41V43a1,1,0,0,0,1,1l.22,0L31,43.14V50.9a33.25,33.25,0,0,0-14.16-1.73l-2-3.17H19a1,1,0,0,0,1-.73l2-7a1,1,0,0,0-1.33-1.2l-4.29,1.72L13.8,35.4a1,1,0,0,0-1.17-.33L8,36.92V30.18L13.23,29a1,1,0,0,0,.7-.6l2-5a1,1,0,0,0,0-.74L14.48,19H18a1,1,0,0,0,.89-1.45l-2.5-5,7-2.61A1,1,0,0,0,24,9.29a1,1,0,0,0-.15-.87l-.89-1.25A31.21,31.21,0,0,1,31,9Zm-23,17,4.66-1.87L15.2,40.6a1,1,0,0,0,1.17.33l3.11-1.24L18.25,44H13a1,1,0,0,0-.84,1.54l2.49,3.92c-1.07.17-2.13.38-3.17.65L8,51Zm4-31a30.78,30.78,0,0,1,8.38-1l1.06,1.48-6.78,2.54a1,1,0,0,0-.58.57,1,1,0,0,0,0,.82L16.38,17H13a1,1,0,0,0-.93,1.37L13.92,23l-1.65,4.14L8,28.13v-19ZM8.23,55.57,4,56.7V13.61l2-.54V52.34a1,1,0,0,0,.39.8,1,1,0,0,0,.61.2,1.15,1.15,0,0,0,.26,0L12,52.05a31.21,31.21,0,0,1,19,1v3.51A38.47,38.47,0,0,0,8.23,55.57ZM60,56.7l-4.23-1.13a38.47,38.47,0,0,0-22.77,1V53a31.2,31.2,0,0,1,19-1l4.73,1.26a1.15,1.15,0,0,0,.26,0,1,1,0,0,0,.61-.2,1,1,0,0,0,.39-.8V13.07l2,.54Z" style="fill:#3b8686"/><path d="M52.24,44l-4-1A1,1,0,1,0,47.76,45l4,1A1,1,0,0,0,53,45.24,1,1,0,0,0,52.24,44Z" style="fill:#3b8686"/><path d="M47.8,41l5,1,.2,0a1,1,0,0,0,1-1V37a1,1,0,0,0-.8-1l-5-1a1,1,0,0,0-.83.21A1,1,0,0,0,47,36v4A1,1,0,0,0,47.8,41ZM49,37.22l3,.6v2l-3-.6Z" style="fill:#3b8686"/><circle cx="47" cy="14" r="1" style="fill:#3b8686"/><circle cx="36" cy="28" r="1" style="fill:#3b8686"/><circle cx="25" cy="15" r="1" style="fill:#3b8686"/><circle cx="11" cy="41" r="1" style="fill:#3b8686"/><circle cx="41" cy="46" r="1" style="fill:#3b8686"/><circle cx="11" cy="15" r="1" style="fill:#3b8686"/><circle cx="28" cy="30" r="1" style="fill:#3b8686"/><circle cx="51" cy="10" r="1" style="fill:#3b8686"/></g></svg>