<?xml version="1.0" ?><svg viewBox="0 0 64 64" xmlns="http://www.w3.org/2000/svg"><title/><g data-name="Day 9" id="c13a2406-733d-4412-a11f-58b85c8f1b29"><path d="M51.21,23.86,47,21c2.68-2.69,4-10,4-10l.17-.34a2,2,0,0,1,1.47,1.44,17.88,17.88,0,0,1-1.3,11.77Z" data-name="&lt;Path&gt;" fill="#e6ddc6" id="6945cf43-aa9a-418d-8fcf-b858f631bef1"/><path d="M41.44,18.29a4.53,4.53,0,0,1,2.77,7.05,3.21,3.21,0,0,1-.55.56A2.35,2.35,0,0,1,39.9,24a7.22,7.22,0,0,0-.71-2.94,2,2,0,0,1,2.2-2.8Z" data-name="&lt;Path&gt;" fill="#e6ddc6" id="c5d71a38-19f5-4455-b9fe-7d4b19335210"/><path d="M43,30a2.5,2.5,0,1,1-3,2.46,2.26,2.26,0,0,1,0-.26C41.55,31.17,42.71,30.24,43,30Z" data-name="&lt;Path&gt;" fill="#001c63" id="0a324bad-91a9-49a7-b3d2-d1dc936ac444"/><path d="M42.5,30A2.22,2.22,0,0,1,43,30c-.24.2-1.4,1.13-2.94,2.2A2.5,2.5,0,0,1,42.5,30Z" data-name="&lt;Path&gt;" fill="#001c63" id="c90a60d8-7ec1-42fd-80c8-8454638ac881"/><path d="M40,41s-.71-5-5-5H32c2.15,0,5.56-2.06,8-3.76a2.26,2.26,0,0,0,0,.26A2.5,2.5,0,1,0,43,30l0,0s5.63-5.37,10,7a.92.92,0,0,0-.38.42C52.1,38.56,50.88,40,48,40,44.94,40,43.71,38.3,40,41Z" data-name="&lt;Path&gt;" fill="#e8e0cb" id="a0b11349-287f-4cc6-93aa-64cb45e27c12"/><path d="M22.64,18.28a2,2,0,0,1,2.2,2.79,7.29,7.29,0,0,0-.72,3,2.34,2.34,0,0,1-4,1.65l0,0a4.55,4.55,0,0,1,2.52-7.38Z" data-name="&lt;Path&gt;" fill="#e6ddc6" id="9009bc5b-229e-4ec2-95ae-db39d999461d"/><path d="M21.5,35A2.5,2.5,0,0,0,24,32.5a2.26,2.26,0,0,0,0-.26c2.45,1.7,5.86,3.76,8,3.76H29c-4.29,0-5,5-5,5-3.71-2.7-4.94-1-8-1-2.88,0-4.1-1.44-4.62-2.59A1,1,0,0,0,11,37c4.38-12.35,10-7,10-7l.05,0a2.5,2.5,0,0,0,.45,5Z" data-name="&lt;Path&gt;" fill="#e8e0cb" id="18d51d5e-5abd-4c83-9b23-3ff26d56d044"/><path d="M24,32.24c-1.54-1.07-2.7-2-2.94-2.2a2.22,2.22,0,0,1,.45,0A2.5,2.5,0,0,1,24,32.24Z" data-name="&lt;Path&gt;" fill="#001c63" id="d4a8635b-0bc8-483d-90c1-6bd5ca88240b"/><path d="M21.05,30c.24.2,1.4,1.13,2.94,2.2a2.26,2.26,0,0,1,0,.26A2.5,2.5,0,1,1,21.05,30Z" data-name="&lt;Path&gt;" fill="#001c63" id="f00905ec-932b-4a40-abfa-6dcef516a7ed"/><path d="M11.5,12.1a2,2,0,0,1,1.35-1.41L13,11s1.32,7.31,4,10l-4.21,2.86A17.81,17.81,0,0,1,11.5,12.1Z" data-name="&lt;Path&gt;" fill="#e6ddc6" id="94d63364-a241-4b2b-bf8f-79db1ff07d16"/><path d="M55.91,39.09a18.1,18.1,0,0,0-1.63-1.92A1,1,0,0,0,53,37a.92.92,0,0,0-.38.42C52.1,38.56,50.88,40,48,40c-3.06,0-4.29-1.7-8,1,0,0-.71-5-5-5H29c-4.29,0-5,5-5,5-3.71-2.7-4.94-1-8-1-2.88,0-4.1-1.44-4.62-2.59A1,1,0,0,0,11,37a1.05,1.05,0,0,0-1.29.18A30.21,30.21,0,0,0,5.5,43c1,.94,5.49,4.39,18.25,5.48l1,2.39A5,5,0,0,0,29.15,54h5.7a5,5,0,0,0,4.44-3.09l1-2.33C52.69,47.47,57.43,44,58.49,43A34.17,34.17,0,0,0,55.91,39.09Zm-19.3,1.8-1,1.44a4.51,4.51,0,0,1-7.2.05l-1-1.52c-.84-1.1.23-.86,1.61-.86h6.56C36.94,40,37.45,39.79,36.61,40.88Z" data-name="&lt;Compound Path&gt;" fill="#d0d1d4" id="15dc9136-1354-40d9-abe9-76d5bc7eab69"/><path d="M58.49,43c-1.06.93-5.8,4.43-18.23,5.54C47.09,47.79,56.17,43,57,40,58,41.27,57.76,41.74,58.49,43Z" data-name="&lt;Path&gt;" fill="#adadb0" id="e086755e-a997-4898-ad82-bb0cd11dd6e1"/><path d="M6.26,43c1.06.93,5.8,4.43,18.23,5.54C17.66,47.79,8.58,43,7.75,40,6.78,41.27,7,41.74,6.26,43Z" data-name="&lt;Path&gt;" fill="#adadb0" id="54bd6db2-2db2-475b-a7be-413c1a1a154d"/><path d="M51.29,24l0-.11h-.13L47,21c2.68-2.69,4-10,4-10l.17-.34a1.93,1.93,0,0,0-1.89.52l-5.13,5.13c-3.79-3-8-4.89-12.15-4.89s-8.3,1.85-12.07,4.83l-5.07-5.07a2,2,0,0,0-2-.49L13,11s1.32,7.31,4,10l-4.21,2.86c-4.09,5.72-6.94,12.62-7.52,19,0,0,.07.08.23.23a30.21,30.21,0,0,1,4.22-5.88A1.05,1.05,0,0,1,11,37c4.38-12.35,10-7,10-7l0,0a2.22,2.22,0,0,1,.45,0A2.5,2.5,0,0,1,24,32.24c2.45,1.7,5.86,3.76,8,3.76s5.56-2.06,8-3.76A2.5,2.5,0,0,1,42.5,30,2.22,2.22,0,0,1,43,30l0,0s5.63-5.37,10,7a1,1,0,0,1,1.28.18A29.39,29.39,0,0,1,58.49,43a2.91,2.91,0,0,0,.24-.23C58.16,36.52,55.34,29.67,51.29,24ZM24.84,21.07a7.29,7.29,0,0,0-.72,3,2.34,2.34,0,0,1-4,1.65s0,0,0,0a4.55,4.55,0,0,1,2.52-7.38h0A2,2,0,0,1,24.84,21.07Zm19.37,4.27a3.21,3.21,0,0,1-.55.56A2.35,2.35,0,0,1,39.9,24a7.22,7.22,0,0,0-.71-2.94,2,2,0,0,1,2.2-2.8h0A4.53,4.53,0,0,1,44.21,25.34Z" data-name="&lt;Compound Path&gt;" fill="#687991" id="97044cfb-d196-4a94-92c1-ffd7bb949ec7"/><g data-name="&lt;Group&gt;" id="abbae414-1e71-445b-88e3-70ec2eeb5e74"><path d="M12.85,10.69a2,2,0,0,1,2,.49l5.07,5.07c3.77-3,7.93-4.83,12.07-4.83s8.36,1.87,12.15,4.89l5.13-5.13a1.93,1.93,0,0,1,1.89-.52" data-name="&lt;Path&gt;" fill="none" id="32cc4641-1432-42a4-8dee-9dda05ff349b" stroke="#001c63" stroke-linecap="round" stroke-linejoin="round" stroke-width="2"/><path d="M5.5,43l-.23-.23c.58-6.33,3.43-13.23,7.52-19" data-name="&lt;Path&gt;" fill="none" id="e98711d3-e45b-4fe3-8398-d3c1e5342df4" stroke="#001c63" stroke-linecap="round" stroke-linejoin="round" stroke-width="2"/><path d="M51.34,23.87l-.05.11c4.05,5.69,6.87,12.54,7.44,18.83a2.92,2.92,0,0,1-.24.23" data-name="&lt;Path&gt;" fill="none" id="2b958c28-175c-4a11-85a5-a3f3f48c2493" stroke="#001c63" stroke-linecap="round" stroke-linejoin="round" stroke-width="2"/><path d="M58.49,43c-1.06.93-5.8,4.43-18.23,5.54l-1,2.33A5,5,0,0,1,34.85,54h-5.7a5,5,0,0,1-4.44-3.09l-1-2.39C11,47.43,6.5,44,5.5,43a30.21,30.21,0,0,1,4.22-5.88A1.05,1.05,0,0,1,11,37a1,1,0,0,1,.37.43C11.9,38.56,13.12,40,16,40c3.06,0,4.29-1.7,8,1,0,0,.71-5,5-5h6c4.29,0,5,5,5,5,3.71-2.7,4.94-1,8-1,2.88,0,4.1-1.44,4.62-2.59A.92.92,0,0,1,53,37a1,1,0,0,1,1.28.18A29.39,29.39,0,0,1,58.49,43Z" data-name="&lt;Path&gt;" fill="none" id="3331e977-b174-410d-b356-6ab82232b46e" stroke="#001c63" stroke-linecap="round" stroke-linejoin="round" stroke-width="2"/><path d="M12.85,10.69,13,11s1.32,7.31,4,10l-4.21,2.86A17.81,17.81,0,0,1,11.5,12.1,2,2,0,0,1,12.85,10.69Z" data-name="&lt;Path&gt;" fill="none" id="39934581-f099-490a-8512-b1efe6193b43" stroke="#001c63" stroke-linecap="round" stroke-linejoin="round" stroke-width="2"/><path d="M51.34,23.87h-.13L47,21c2.68-2.69,4-10,4-10l.17-.34a2,2,0,0,1,1.47,1.44A17.88,17.88,0,0,1,51.34,23.87Z" data-name="&lt;Path&gt;" fill="none" id="0992e2b7-78da-4a5d-9cec-5c6bfe4618aa" stroke="#001c63" stroke-linecap="round" stroke-linejoin="round" stroke-width="2"/><path d="M11,37v0c4.38-12.35,10-7,10-7l.05,0c.24.2,1.4,1.13,2.94,2.2,2.45,1.7,5.86,3.76,8,3.76" data-name="&lt;Path&gt;" fill="none" id="067c24fd-2417-4413-9dc4-b844e57a6dfa" stroke="#001c63" stroke-linecap="round" stroke-linejoin="round" stroke-width="2"/><path d="M53,37h0c-4.37-12.36-10-7-10-7l0,0c-.24.2-1.4,1.13-2.94,2.2C37.56,33.94,34.15,36,32,36" data-name="&lt;Path&gt;" fill="none" id="57af5944-af33-4678-96e5-b458008248de" stroke="#001c63" stroke-linecap="round" stroke-linejoin="round" stroke-width="2"/></g><path d="M35.28,38.41a1.67,1.67,0,0,1,1.33,2.68l-1,1.34a4.51,4.51,0,0,1-7.2,0l-1-1.34a1.67,1.67,0,0,1,1.33-2.68Z" data-name="&lt;Path&gt;" fill="#001c63" id="bacdfb6b-3205-4d15-84dd-b877ddb28f45"/></g></svg>